<?xml version="1.0" encoding="UTF-8" standalone="no"?>
<!-- Created with Inkscape (http://www.inkscape.org/) -->

<svg
   width="400mm"
   height="100mm"
   viewBox="0 0 400 100"
   version="1.1"
   id="svg1"
   inkscape:version="1.4 (e7c3feb100, 2024-10-09)"
   sodipodi:docname="kmeans_tpu_banner.svg"
   xmlns:inkscape="http://www.inkscape.org/namespaces/inkscape"
   xmlns:sodipodi="http://sodipodi.sourceforge.net/DTD/sodipodi-0.dtd"
   xmlns="http://www.w3.org/2000/svg"
   xmlns:svg="http://www.w3.org/2000/svg">
  <sodipodi:namedview
     id="namedview1"
     pagecolor="#ffffff"
     bordercolor="#000000"
     borderopacity="0.25"
     inkscape:showpageshadow="2"
     inkscape:pageopacity="0.0"
     inkscape:pagecheckerboard="0"
     inkscape:deskcolor="#d1d1d1"
     inkscape:document-units="mm"
     showguides="true"
     inkscape:zoom="0.5683642"
     inkscape:cx="641.31414"
     inkscape:cy="383.55688"
     inkscape:window-width="1280"
     inkscape:window-height="987"
     inkscape:window-x="0"
     inkscape:window-y="0"
     inkscape:window-maximized="1"
     inkscape:current-layer="layer1" />
  <defs
     id="defs1">
    <rect
       x="61.442005"
       y="672.10028"
       width="679.62384"
       height="85.266457"
       id="rect13-6" />
    <rect
       x="61.442005"
       y="672.10028"
       width="1038.4326"
       height="208.97475"
       id="rect13" />
  </defs>
  <g
     inkscape:label="Layer 1"
     inkscape:groupmode="layer"
     id="layer1"
     transform="translate(1.5862132,-1.6719905)">
    <g
       inkscape:groupmode="layer"
       id="layer2"
       inkscape:label="background"
       transform="translate(-1.5862132,1.6719905)"
       sodipodi:insensitive="true">
      <rect
         style="fill:none;fill-opacity:1;stroke:none;stroke-width:3.96875;stroke-dasharray:none;stroke-opacity:1"
         id="rect5"
         width="400"
         height="100"
         x="-3.1086731e-08"
         y="1.3801575e-08"
         inkscape:label="white_bkg" />
    </g>
    <rect
       style="display:inline;fill:#f0cea0;fill-opacity:1;stroke:none;stroke-width:7.31234;stroke-opacity:1"
       id="rect1"
       width="55.825768"
       height="55.825768"
       x="20.535851"
       y="23.724163"
       ry="9.1908264" />
    <path
       style="fill:none;fill-opacity:1;stroke:#534d41;stroke-width:2.21559;stroke-dasharray:none;stroke-opacity:1"
       d="m 36.515323,58.554137 16.709964,8.482714"
       id="path6-9"
       sodipodi:nodetypes="cc" />
    <path
       style="fill:none;fill-opacity:1;stroke:#534d41;stroke-width:2.21559;stroke-dasharray:none;stroke-opacity:1"
       d="M 36.835676,46.940144 24.053102,25.673776"
       id="path6"
       sodipodi:nodetypes="cc" />
    <path
       style="fill:none;fill-opacity:1;stroke:#534d41;stroke-width:2.21559;stroke-dasharray:none;stroke-opacity:1"
       d="M 55.949422,35.956499 74.13907,25.103075"
       id="path6-8"
       sodipodi:nodetypes="cc" />
    <path
       style="fill:none;fill-opacity:1;stroke:#534d41;stroke-width:2.21559;stroke-dasharray:none;stroke-opacity:1"
       d="m 48.448732,23.724163 7.50069,12.232336"
       id="path6-8-9"
       sodipodi:nodetypes="cc" />
    <path
       style="fill:none;fill-opacity:1;stroke:#534d41;stroke-width:2.21559;stroke-dasharray:none;stroke-opacity:1"
       d="M 63.324374,64.297101 58.914289,79.3592"
       id="path6-8-1"
       sodipodi:nodetypes="cc" />
    <path
       style="fill:none;fill-opacity:1;stroke:#534d41;stroke-width:2.21559;stroke-dasharray:none;stroke-opacity:1"
       d="M 23.103626,76.492262 30.028704,53.747114"
       id="path6-6"
       sodipodi:nodetypes="cc" />
    <path
       style="display:inline;fill:none;fill-opacity:1;stroke:#534d41;stroke-width:2.21559;stroke-dasharray:none;stroke-opacity:1"
       d="M 63.324374,64.297101 64.588236,43.696703"
       id="path5"
       sodipodi:nodetypes="cc" />
    <path
       style="fill:none;fill-opacity:1;stroke:#534d41;stroke-width:2.21559;stroke-dasharray:none;stroke-opacity:1"
       d="m 55.865756,42.732921 -19.03008,4.207223"
       id="path4"
       sodipodi:nodetypes="cc" />
    <path
       style="fill:none;fill-opacity:1;stroke:#534d41;stroke-width:2.21559;stroke-dasharray:none;stroke-opacity:1"
       d="M 53.225287,67.036851 38.751411,79.549929"
       id="path10" />
    <g
       id="g6"
       transform="matrix(0.55825767,0,0,0.55825767,-6.4915197,-5.1221283)">
      <circle
         style="fill:#db2b39;fill-opacity:1;stroke-width:7.46597"
         id="path1"
         cx="77.611465"
         cy="93.258499"
         r="12.193243" />
      <circle
         style="fill:#db2b39;fill-opacity:1;stroke-width:2.87369"
         id="path1-5"
         cx="65.418221"
         cy="105.45174"
         r="4.693244" />
      <circle
         style="fill:#db2b39;fill-opacity:1;stroke-width:4.6944"
         id="path1-5-5"
         cx="77.037621"
         cy="114.0625"
         r="7.66679" />
    </g>
    <g
       id="g7"
       transform="matrix(0.55825767,0,0,0.55825767,-6.4915197,-5.1221283)">
      <circle
         style="fill:#ff9955;stroke-width:6.22325"
         id="path1-3"
         cx="127.32428"
         cy="82.634239"
         r="10.163667" />
      <circle
         style="fill:#ff9955;stroke-width:4.29308"
         id="path1-3-8"
         cx="111.84968"
         cy="73.583633"
         r="7.0113549" />
      <circle
         style="fill:#ff9955;stroke-width:2.99448"
         id="path1-3-8-0"
         cx="111.69981"
         cy="85.722153"
         r="4.8905077" />
    </g>
    <g
       id="g8"
       transform="matrix(0.55825767,0,0,0.55825767,-6.4915197,-5.1221283)">
      <circle
         style="fill:#f3a712;fill-opacity:1;stroke-width:3.94295"
         id="path1-3-2"
         cx="106.96997"
         cy="129.25748"
         r="6.4395308" />
      <circle
         style="fill:#f3a712;fill-opacity:1;stroke-width:2.83843"
         id="path1-3-2-1"
         cx="109.30517"
         cy="117.15453"
         r="4.6356516" />
      <circle
         style="fill:#f3a712;fill-opacity:1;stroke-width:6.80627"
         id="path1-3-2-4"
         cx="125.06034"
         cy="124.3498"
         r="11.115838" />
    </g>
    <path
       id="rect2"
       style="fill:#29335c;fill-opacity:1;stroke-width:10.885"
       d="M 27.513819 11.602134 L 27.513819 20.274473 C 22.223019 21.208393 18.019324 25.41162 17.085515 30.70226 L 8.4136932 30.70226 L 8.4136932 39.076426 L 16.87881 39.076426 L 16.87881 47.450075 L 8.4136932 47.450075 L 8.4136932 55.823724 L 16.87881 55.823724 L 16.87881 64.19789 L 8.4136932 64.19789 L 8.4136932 72.571539 L 17.085515 72.571539 C 18.019375 77.862404 22.223068 82.066671 27.513819 83.000876 L 27.513819 91.672182 L 35.887985 91.672182 L 35.887985 83.207065 L 44.261634 83.207065 L 44.261634 91.672182 L 52.6358 91.672182 L 52.6358 83.207065 L 61.009449 83.207065 L 61.009449 91.672182 L 69.383615 91.672182 L 69.383615 83.000876 C 74.674072 82.066441 78.877589 77.8622 79.811402 72.571539 L 88.483741 72.571539 L 88.483741 64.19789 L 80.017591 64.19789 L 80.017591 55.823724 L 88.483741 55.823724 L 88.483741 47.450075 L 80.017591 47.450075 L 80.017591 39.076426 L 88.483741 39.076426 L 88.483741 30.70226 L 79.811402 30.70226 C 78.87764 25.411825 74.67412 21.208623 69.383615 20.274473 L 69.383615 11.602134 L 61.009449 11.602134 L 61.009449 20.068284 L 52.6358 20.068284 L 52.6358 11.602134 L 44.261634 11.602134 L 44.261634 20.068284 L 35.887985 20.068284 L 35.887985 11.602134 L 27.513819 11.602134 z M 29.726604 27.381016 L 67.169797 27.381016 C 70.299238 27.381016 72.704859 29.78457 72.704859 32.914011 L 72.704859 70.359271 C 72.704859 73.488712 70.299238 75.894333 67.169797 75.894333 L 29.726604 75.894333 C 26.597163 75.894333 24.191542 73.488712 24.191542 70.359271 L 24.191542 32.914011 C 24.191542 29.78457 26.597163 27.381016 29.726604 27.381016 z " />
    <path
       style="-inkscape-font-specification:'DejaVu Sans Mono Bold';fill:#29335c;stroke-width:37.7953"
       d="m 271.06275,679.00362 h 15.14129 v 42.21991 l 18.19022,-19.68884 h 18.34525 l -21.91095,21.60088 23.15119,36.27709 h -16.74327 l -15.86477,-27.07862 -5.16767,4.96096 v 22.11766 h -15.14129 z m 90.38265,28.31886 q 1.70533,-3.66904 4.34084,-5.42605 2.63552,-1.75701 6.4596,-1.75701 7.49313,0 10.33535,5.16767 2.8939,5.16768 2.8939,21.49753 v 32.60804 h -12.40242 v -37.15559 q 0,-6.4596 -0.98186,-8.63002 -0.98186,-2.17042 -3.5657,-2.17042 -2.58384,0 -3.61737,2.2221 -1.03354,2.2221 -1.03354,8.57834 v 37.15559 h -12.24739 v -37.15559 q 0,-6.35624 -1.03353,-8.57834 -1.03354,-2.2221 -3.61738,-2.2221 -2.58383,0 -3.56569,2.17042 -0.98186,2.17042 -0.98186,8.63002 v 37.15559 h -12.40242 v -57.87797 h 11.00715 v 5.9945 q 1.29192,-3.41066 4.13414,-5.37438 2.84222,-2.01539 6.35624,-2.01539 3.51402,0 6.40792,2.11874 2.8939,2.06707 3.51402,5.06432 z m 85.00826,49.24795 q -5.27103,2.17043 -10.74876,3.25564 -5.47774,1.08521 -11.5756,1.08521 -14.52117,0 -22.221,-7.75151 -7.64816,-7.80319 -7.64816,-22.42771 0,-14.15944 7.38977,-22.37604 7.38978,-8.2166 20.15394,-8.2166 12.86751,0 19.94723,7.64816 7.13139,7.59648 7.13139,21.44585 v 6.14953 h -39.22266 q 0.0517,6.82134 4.03079,10.18033 3.97911,3.35898 11.88565,3.35898 5.21935,0 10.28368,-1.49862 5.06432,-1.49863 10.59373,-4.75426 z m -12.81583,-32.55635 q -0.10336,-5.99451 -3.10061,-9.04344 -2.94557,-3.1006 -8.73337,-3.1006 -5.21935,0 -8.31996,3.20396 -3.1006,3.15228 -3.66905,8.99175 z m 55.75922,8.2166 q -8.47499,0 -11.83398,2.17043 -3.35899,2.17042 -3.35899,7.44145 0,3.92743 2.32546,6.25289 2.32545,2.32545 6.30456,2.32545 5.99451,0 9.30182,-4.49588 3.30731,-4.54755 3.30731,-12.6608 v -1.03354 z m 21.08412,-5.83947 v 33.02145 h -15.03794 v -6.4596 q -2.73887,3.82408 -7.02804,5.89115 -4.28917,2.06707 -9.45684,2.06707 -9.87026,0 -15.39968,-5.21935 -5.47773,-5.21935 -5.47773,-14.57285 0,-10.12864 6.56294,-14.93458 6.56295,-4.85761 20.30897,-4.85761 h 10.49038 v -2.53216 q 0,-3.66905 -2.68719,-5.52942 -2.63551,-1.91204 -7.80319,-1.91204 -5.42606,0 -10.54206,1.39527 -5.06432,1.3436 -10.59373,4.34085 V 704.1702 q 5.01264,-2.06707 10.18032,-3.04893 5.16767,-0.98185 10.95547,-0.98185 14.10775,0 19.7922,5.73612 5.73612,5.73612 5.73612,20.51567 z m 61.8054,-4.54756 v 37.56901 h -15.03794 v -35.24355 q 0,-6.30457 -1.80869,-8.99176 -1.75701,-2.73887 -5.78779,-2.73887 -4.08247,0 -6.4596,3.66905 -2.32545,3.66905 -2.32545,10.18032 v 33.12481 h -15.03794 v -57.87797 h 15.03794 v 8.68169 q 1.60198,-4.80594 5.47773,-7.44145 3.87576,-2.63551 9.3535,-2.63551 8.2166,0 12.40242,5.47773 4.18582,5.42606 4.18582,16.2265 z m 59.58331,-18.50028 v 13.22925 q -4.18582,-2.68719 -8.73337,-4.03078 -4.49588,-1.39528 -9.04344,-1.39528 -5.06432,0 -7.64816,1.49863 -2.58383,1.44695 -2.58383,4.34085 0,4.13414 11.05882,6.71798 l 0.56845,0.15503 4.34084,1.03353 q 8.26829,1.96372 12.09237,6.35624 3.87575,4.34085 3.87575,11.7823 0,8.94008 -5.89115,13.43596 -5.83947,4.4442 -17.62177,4.4442 -5.21936,0 -10.69709,-0.93018 -5.47774,-0.8785 -11.1105,-2.68719 v -13.22925 q 5.01264,2.84222 10.18032,4.34085 5.21935,1.49862 10.07696,1.49862 5.32271,0 8.06158,-1.5503 2.73887,-1.5503 2.73887,-4.49588 0,-2.8939 -1.96372,-4.4442 -1.91204,-1.5503 -9.19846,-3.30731 l -4.18582,-0.93018 q -8.6817,-1.96372 -12.66081,-6.14954 -3.97911,-4.18581 -3.97911,-11.21385 0,-8.37164 6.04618,-13.02255 6.04619,-4.6509 17.00166,-4.6509 4.90929,0 9.7669,0.82682 4.9093,0.77516 9.50853,2.37713 z m 76.22321,71.21058 v 9.81858 h -63.71744 v -9.81858 z m 35.65696,-89.45247 v 16.43321 h 19.7922 v 11.62727 h -19.7922 v 27.38868 q 0,3.87576 1.86036,5.58109 1.91204,1.65366 6.30457,1.65366 h 11.62727 v 11.62727 h -12.71248 q -13.02255,0 -17.62178,-4.13414 -4.59923,-4.18582 -4.59923,-15.45135 v -26.66521 h -14.77955 v -11.62727 h 14.77955 v -16.43321 z m 50.9016,66.14625 v 30.17923 h -15.08961 v -79.89227 h 15.08961 v 8.68169 q 2.37713,-5.01264 6.25289,-7.5448 3.87576,-2.53216 9.09511,-2.53216 9.92194,0 15.39967,7.95822 5.47774,7.95822 5.47774,22.42771 0,14.6762 -5.58109,22.53107 -5.52941,7.85486 -15.81309,7.85486 -4.65091,0 -8.37163,-2.37713 -3.66905,-2.42881 -6.4596,-7.28642 z M 815.73577,730.422 q 0,-8.37164 -2.79055,-13.1259 -2.79054,-4.75426 -7.69983,-4.75426 -4.9093,0 -7.75152,4.75426 -2.84222,4.75426 -2.84222,13.1259 0,8.37163 2.84222,13.12589 2.84222,4.75426 7.75152,4.75426 4.90929,0 7.69983,-4.75426 2.79055,-4.75426 2.79055,-13.12589 z m 28.06047,8.78504 v -37.67235 h 15.14129 v 35.3469 q 0,6.25289 1.75701,8.94008 1.75701,2.68719 5.83948,2.68719 4.08246,0 6.35624,-3.61737 2.32545,-3.61738 2.32545,-10.12865 V 701.53469 H 890.357 v 57.87797 h -15.14129 v -8.57835 q -1.60198,4.80594 -5.47773,7.44146 -3.82408,2.63551 -9.25014,2.63551 -8.26828,0 -12.50578,-5.47773 -4.18582,-5.47774 -4.18582,-16.22651 z"
       id="text13"
       transform="matrix(0.43333044,0,0,0.43333044,-3.2254779,-263.07757)"
       aria-label="kmeans_tpu" />
  </g>
</svg>
